PathFileType	4	(X/Y/Z)	static.trc
DataRate	CameraRate	NumFrames	NumMarkers	Units	OrigDataRate	OrigDataStartFrame	OrigNumFrames
250.000000	250.000000	4	58	mm	250.000000	241	483
Frame#	Time	RASI			LASI			RPSI			LPSI			RAIC			LAIC			RLFC			RMFC			RTH1			RTH2			RTH3			RLMAL			RMMAL			RTB1			RTB2			RTB3			RCAL			RMT1			RMT5			LLFC			LMFC			LTH1			LTH2			LTH3			LLMAL			LMMAL			LTB1			LTB2			LTB3			LCAL			LMT1			LMT5			C7			T10			CLAV			STRN			RACR			LACR			RHJC			LHJC			RKJC			LKJC			RAJC			LAJC			RMT3			LMT3			fRCAL			fLCAL			fRAJC			fLAJC			fRMT1			fLMT1			fRMT5			fLMT5			fRMT3			fLMT3			MTOR			MPEL			
		X1	Y1	Z1	X2	Y2	Z2	X3	Y3	Z3	X4	Y4	Z4	X5	Y5	Z5	X6	Y6	Z6	X7	Y7	Z7	X8	Y8	Z8	X9	Y9	Z9	X10	Y10	Z10	X11	Y11	Z11	X12	Y12	Z12	X13	Y13	Z13	X14	Y14	Z14	X15	Y15	Z15	X16	Y16	Z16	X17	Y17	Z17	X18	Y18	Z18	X19	Y19	Z19	X20	Y20	Z20	X21	Y21	Z21	X22	Y22	Z22	X23	Y23	Z23	X24	Y24	Z24	X25	Y25	Z25	X26	Y26	Z26	X27	Y27	Z27	X28	Y28	Z28	X29	Y29	Z29	X30	Y30	Z30	X31	Y31	Z31	X32	Y32	Z32	X33	Y33	Z33	X34	Y34	Z34	X35	Y35	Z35	X36	Y36	Z36	X37	Y37	Z37	X38	Y38	Z38	X39	Y39	Z39	X40	Y40	Z40	X41	Y41	Z41	X42	Y42	Z42	X43	Y43	Z43	X44	Y44	Z44	X45	Y45	Z45	X46	Y46	Z46	X47	Y47	Z47	X48	Y48	Z48	X49	Y49	Z49	X50	Y50	Z50	X51	Y51	Z51	X52	Y52	Z52	X53	Y53	Z53	X54	Y54	Z54	X55	Y55	Z55	X56	Y56	Z56	X57	Y57	Z57	X58	Y58	Z58	

242	0.964	520.3597412109377	1044.258911132813	406.9433593750002	517.714050292969	1060.941772460938	191.7698364257813	342.326141357422	1080.944946289063	355.3443298339845	344.3349609375001	1086.54638671875	259.4489746093751	447.2380981445315	1116.217041015625	457.3133239746096	459.7479248046877	1128.658325195313	162.9515686035157	419.6814575195315	551.4558715820315	490.770202636719	406.0369567871096	520.8533325195315	370.1944274902345	441.4825439453127	806.081665039063	501.554626464844	487.5307922363284	713.815124511719	490.2824707031252	424.9390869140627	628.830749511719	492.7501525878909	366.3696594238282	95.82092285156253	508.3963012695315	396.6001281738284	105.9850692749024	417.9688720703127	435.6672363281252	396.8159179687502	427.8142395019534	443.8455810546877	331.2029724121095	483.611755371094	427.3396911621096	258.0978088378907	442.4312744140627	312.1683654785157	44.1237030029297	455.3621520996096	530.659118652344	47.85998535156251	445.7548828125002	519.4786376953127	43.70057296752931	554.745544433594	419.955749511719	545.7519531250002	109.3664932250977	410.5105590820315	519.933532714844	232.0430297851564	438.9920349121096	832.185424804688	102.4267654418946	478.0081787109377	741.0087890625002	106.9998855590821	413.682312011719	660.1319580078127	111.0483322143555	372.342254638672	100.006950378418	88.10174560546878	400.2532653808596	102.7959518432618	178.8757781982422	439.3709716796877	395.8640747070315	170.1994018554688	450.3494567871096	324.2778930664064	121.6857147216797	424.7630004882815	258.0648193359376	166.8481597900391	318.0581054687501	44.47422027587892	134.1685638427735	541.7644653320315	43.07979965209962	162.5752258300782	533.1523437500002	41.32602310180665	52.47699356079104	342.6380920410157	1540.509887695313	311.2766418457032	330.2972106933595	1268.320556640625	305.7171020507814	486.1157836914065	1512.007202148438	313.6540527343751	564.2758789062502	1330.765014648438	313.9898376464845	345.7687377929689	1537.324829101563	486.652526855469	347.4329833984376	1541.212646484376	140.2118225097657	466.2280908384305	991.0814325658978	366.6883837830306	464.4817558671664	1002.09324953975	224.6593034153094	412.8592071533205	536.1546020507815	430.4823150634767	415.2331542968752	532.8427429199221	170.704761505127	381.4848937988283	100.9029960632325	463.1825866699221	386.2977600097658	101.4014511108399	133.4887619018555	525.0688781738284	45.78027915954591	500.2502136230471	537.4584045410159	42.20291137695313	107.5261096954346	312.1683654785157	0	455.3621520996096	318.0581054687501	0	134.1685638427735	381.4848937988283	0	463.1825866699221	386.2977600097658	0	133.4887619018555	530.659118652344	0	445.7548828125002	541.7644653320315	0	162.5752258300782	519.4786376953127	0	554.745544433594	533.1523437500002	0	52.47699356079104	525.0688781738284	0	500.2502136230471	537.4584045410159	0	107.5261096954346	380.4888992309571	1532.763641357422	312.9487609863282	431.1837234497072	1068.173004150391	303.3766250610353	
243	0.968	519.974060058594	1043.795166015625	406.6392822265627	517.683044433594	1060.938110351563	191.757064819336	342.2967529296876	1080.913940429688	355.3088989257814	344.3052978515626	1086.5537109375	259.4406738281251	447.2241516113284	1116.152709960938	457.3394775390627	459.7004394531252	1128.58740234375	162.9362945556641	419.6502075195315	551.4506835937502	490.7556457519534	406.0122375488284	520.854187011719	370.2051696777345	441.4364318847659	806.069946289063	501.5361022949221	487.5018005371096	713.7661743164065	490.3053894042971	424.9284667968752	628.8256835937502	492.7637329101565	366.387176513672	95.74542236328128	508.3451843261721	396.5422058105471	105.9536361694337	417.932800292969	435.5971984863284	396.8090515136721	427.783142089844	443.8575439453127	331.2071838378907	483.6018676757815	427.3543090820315	258.0668334960939	442.4530029296877	312.160858154297	44.11976242065431	455.1023559570315	530.6735839843752	47.85244369506837	445.768249511719	519.4873657226565	43.69776153564455	554.7241821289065	419.9369201660159	545.7615356445315	109.3170547485352	410.4092407226565	519.9637451171877	231.9704437255861	438.9660644531252	832.2326660156255	102.4151000976563	478.0074157714846	741.0072021484377	106.980323791504	413.6631164550784	660.1568603515627	111.0279998779297	372.3580932617189	99.97196960449224	88.01200103759768	400.2671813964846	102.794044494629	178.8672027587891	439.3274230957034	395.8270568847659	170.208480834961	450.371032714844	324.2936096191407	121.7183990478516	424.7455749511721	258.0560607910157	166.8352813720704	318.0654907226564	44.467586517334	134.1404571533204	541.9920043945315	43.15611267089845	162.6652069091797	533.1500244140627	41.37255477905275	52.48350524902347	342.6826477050782	1540.525878906251	311.2600708007814	330.3287963867189	1268.34033203125	305.7259826660157	486.1419067382815	1511.89013671875	313.6867980957032	564.249450683594	1330.69921875	313.9810180664064	345.8574523925782	1537.525146484376	486.654235839844	347.4429626464845	1541.208984375001	140.2855072021485	465.8605676749438	990.8636038995105	366.2341300980658	464.3483422029936	1002.179108170255	224.3973136720123	412.8312225341799	536.1524353027346	430.480407714844	415.1730804443362	532.8626403808596	170.6437492370607	381.4646911621095	100.8495292663575	463.1389923095705	386.3126373291018	101.3830070495606	133.4396018981934	525.0804748535159	45.77510261535646	500.2462158203127	537.5710144042971	42.2643337249756	107.5743560791016	312.160858154297	0	455.1023559570315	318.0654907226564	0	134.1404571533204	381.4646911621095	0	463.1389923095705	386.3126373291018	0	133.4396018981934	530.6735839843752	0	445.768249511719	541.9920043945315	0	162.6652069091797	519.4873657226565	0	554.7241821289065	533.1500244140627	0	52.48350524902347	525.0804748535159	0	500.2462158203127	537.5710144042971	0	107.5743560791016	380.5312423706056	1532.787536621094	312.9716529846193	431.0647888183595	1068.050231933594	303.2864799499513	
244	0.972	520.138366699219	1044.050048828125	406.7755432128909	517.6505126953127	1060.949829101563	191.7372283935547	342.2761840820314	1080.944946289063	355.3710021972657	344.2821350097657	1086.565551757813	259.4532165527345	447.1908874511721	1116.101440429688	457.3922119140627	459.6844787597659	1128.633422851563	162.9463348388672	419.6407775878909	551.4691162109377	490.7413635253909	406.0119934082034	520.8452148437502	370.2025146484376	441.4177856445315	806.0803833007817	501.541442871094	487.4441528320315	713.7566528320315	490.2868347167971	424.903747558594	628.8472290039065	492.7557067871096	366.316864013672	95.89942169189456	508.3279113769534	396.5642089843752	105.969841003418	417.943786621094	435.612731933594	396.8169555664065	427.7764282226565	443.8686828613284	331.2183532714845	483.6217956542971	427.3021240234377	258.0596923828126	442.4094238281252	312.1358642578126	44.10011291503908	455.3239440917971	530.6496582031252	47.85158538818361	445.7335510253909	519.467712402344	43.7034378051758	554.7718505859377	419.9756469726565	545.7559814453127	109.3414535522462	410.4354553222659	519.9326171875002	232.0136718750001	438.9531860351565	832.240600585938	102.4225311279297	478.0067443847659	741.0334472656252	106.9790725708008	413.6763305664065	660.152282714844	111.0135192871094	372.242889404297	100.0040588378907	88.01240539550784	400.2328186035159	102.7655487060547	178.8734588623047	439.3883056640627	395.8647460937502	170.2181701660157	450.4028930664065	324.2872619628907	121.7455978393555	424.7305908203127	258.0535583496095	166.8234252929688	318.0827026367189	44.46139907836915	134.1875915527344	541.5242309570315	42.90853118896486	162.6451568603516	533.1299438476565	41.34403610229494	52.46097564697268	342.7383728027345	1540.491088867188	311.2940063476564	330.3336486816407	1268.349365234375	305.7654724121095	486.1290588378909	1511.8486328125	313.6932678222657	564.240905761719	1330.647705078125	313.9748840332032	345.8588256835939	1537.499877929688	486.655700683594	347.5093078613282	1541.181518554688	140.3795471191407	466.0111520281536	990.9905553744252	366.4519657289076	464.3690000034583	1002.145554160269	224.5121237955861	412.8263854980472	536.157165527344	430.4719390869143	415.2055511474612	532.8442993164065	170.6775627136232	381.4405364990236	100.9346313476563	463.1358489990237	386.2378540039065	101.3848037719727	133.4429321289063	525.0586853027346	45.7775115966797	500.2527008056643	537.327087402344	42.1262836456299	107.5530662536621	312.1358642578126	0	455.3239440917971	318.0827026367189	0	134.1875915527344	381.4405364990236	0	463.1358489990237	386.2378540039065	0	133.4429321289063	530.6496582031252	0	445.7335510253909	541.5242309570315	0	162.6451568603516	519.467712402344	0	554.7718505859377	533.1299438476565	0	52.46097564697268	525.0586853027346	0	500.2527008056643	537.327087402344	0	107.5530662536621	380.5588912963869	1532.755279541016	313.0056304931642	431.0867996215822	1068.127593994141	303.3342475891114	
245	0.976	520.0926513671877	1044.026000976563	406.8322753906252	517.6409912109377	1060.918212890625	191.7041473388672	342.2605285644532	1080.968383789063	355.2958068847657	344.2543029785157	1086.537719726563	259.4587707519532	447.1402587890627	1116.056274414063	457.4051208496096	459.6361999511721	1128.619384765625	162.945785522461	419.6278381347659	551.4539794921877	490.7500915527346	405.9776306152346	520.8416137695315	370.196502685547	441.3811645507815	806.0576782226567	501.5398254394534	487.4452209472659	713.7608642578127	490.2854309082034	424.8762207031252	628.8186035156252	492.7435302734377	366.2901000976564	95.83693695068362	508.2582702636721	396.5874938964846	105.9639205932618	417.980895996094	435.631286621094	396.8029479980471	427.8042297363284	443.8418884277346	331.2210083007814	483.5785217285159	427.3697509765627	258.1023254394532	442.4810180664065	312.1475830078126	44.1170120239258	455.2063903808596	530.6279296875002	47.82415008544923	445.7143554687502	519.4890747070315	43.7075881958008	554.7366333007815	420.0125732421877	545.7886352539065	109.3131637573243	410.3994445800784	519.9146728515627	231.9972381591798	438.9690246582034	832.2478637695317	102.4546051025391	478.0130920410159	741.048278808594	106.9620208740235	413.670104980469	660.169616699219	110.9908065795899	372.382537841797	99.97670745849615	88.11723327636722	400.2224731445315	102.7500076293946	178.8422088623047	439.3823852539065	395.8780822753909	170.2203216552735	450.382263183594	324.2962036132814	121.719596862793	424.772155761719	258.041717529297	166.7929687500001	318.0723266601564	44.47461700439455	134.1625518798829	541.8049316406252	43.13273239135744	162.6280212402344	533.1335449218752	41.33761596679689	52.45786285400393	342.7855529785157	1540.498291015626	311.2996215820314	330.3860473632814	1268.350708007813	305.775360107422	486.182800292969	1511.75732421875	313.7521972656251	564.2482910156252	1330.57470703125	313.9684448242189	345.8240966796876	1537.417968750001	486.6905212402346	347.5369873046876	1541.170288085938	140.4146270751954	465.9605130897298	990.9462118696595	366.4865713359465	464.3422515222145	1002.096214557089	224.4874525632351	412.8027343750002	536.1477966308596	430.4732971191408	415.206008911133	532.8516540527346	170.6552009582521	381.4387969970705	100.9004287719727	463.119583129883	386.3025054931642	101.3633575439454	133.4797210693359	525.0585021972659	45.76586914062501	500.2254943847659	537.4692382812502	42.23517417907716	107.5429420471192	312.1475830078126	0	455.2063903808596	318.0723266601564	0	134.1625518798829	381.4387969970705	0	463.119583129883	386.3025054931642	0	133.4797210693359	530.6279296875002	0	445.7143554687502	541.8049316406252	0	162.6280212402344	519.4890747070315	0	554.7366333007815	533.1335449218752	0	52.45786285400393	525.0585021972659	0	500.2254943847659	537.4692382812502	0	107.5429420471192	380.582359313965	1532.710968017579	313.0392417907716	431.0621185302736	1068.112579345704	303.3227500915528	
